<svg width="22" height="23" viewBox="0 0 22 23" fill="none" xmlns="http://www.w3.org/2000/svg">
<path d="M10.6656 21.6476L9.59859 19.7133C9.22679 19.0394 9.44679 18.1792 10.0914 17.7905L10.3268 17.6479C10.3114 17.4938 10.3048 17.3374 10.3048 17.1833C10.3048 17.0292 10.3114 16.8751 10.3268 16.7187L10.0914 16.5784C9.78339 16.3921 9.55679 16.0816 9.46439 15.7228C9.37199 15.3617 9.42039 14.9776 9.59859 14.6533L10.6656 12.719C10.8438 12.397 11.1408 12.1601 11.484 12.0635C11.5984 12.0313 11.715 12.0152 11.8338 12.0152C12.0692 12.0152 12.3024 12.0796 12.507 12.2038L12.7446 12.3464C12.9866 12.1739 13.244 12.0221 13.5102 11.891V11.5966C13.5102 11.5736 13.5234 11.5529 13.5234 11.5299C12.8106 10.9641 11.9174 10.5248 10.7646 10.2925V9.59558C12.353 8.80208 13.4596 7.12078 13.4596 5.15888C13.4596 2.43798 11.3476 0.22998 8.74279 0.22998C6.13799 0.22998 4.02819 2.43798 4.02819 5.16118C4.02819 7.12538 5.13479 8.80668 6.72319 9.59788V10.2948C1.35299 11.3712 1.33319 16.8084 1.33319 19.9525C1.33319 22.4066 11.6006 22.3376 11.4862 22.3054C11.1386 22.2088 10.8438 21.9719 10.6656 21.6476Z" fill="white"/>
<path d="M19.7802 17.1833C19.7802 16.7693 19.7098 16.3783 19.6086 15.9965L20.6668 15.3594L19.5976 13.4251L18.5526 14.0553C18.018 13.4872 17.3382 13.0801 16.5748 12.8731V11.5989H14.4386V12.8731C13.6774 13.0801 12.9954 13.4849 12.4608 14.0553L11.4158 13.4251L10.3466 15.3594L11.4048 15.9965C11.3058 16.3783 11.2332 16.7693 11.2332 17.1833C11.2332 17.5973 11.3036 17.9883 11.4048 18.3701L10.3466 19.0095L11.4158 20.9438L12.4608 20.3136C12.9954 20.8817 13.6774 21.2888 14.4408 21.4958V22.77L16.577 22.7677V21.4958C17.3382 21.2911 18.0224 20.8817 18.557 20.3136L19.602 20.9438L20.669 19.0095L19.613 18.3724C19.712 17.9906 19.7802 17.5996 19.7802 17.1833ZM15.5078 19.8812C14.0822 19.8812 12.9294 18.676 12.9294 17.1856C12.9294 15.6975 14.0822 14.49 15.5078 14.49C16.9334 14.49 18.0862 15.6975 18.0862 17.1856C18.0862 18.6737 16.9334 19.8812 15.5078 19.8812Z" fill="white"/>
</svg>
