<svg width="279" height="214" viewBox="0 0 279 214" fill="none" xmlns="http://www.w3.org/2000/svg">
<path d="M140.5 90.5V213L39.5 189.5V167V103.5L106 119L140.5 90.5Z" fill="#13293D"/>
<path d="M38 62L137.5 86.5L104 114L0.5 88L38 62Z" fill="#13293D"/>
<path d="M113.5 0.5L139 32L38 56.5L8 25L113.5 0.5Z" fill="#13293D"/>
<path d="M172 0.5L279 25L249 56.5L147.5 31.5L172 0.5Z" fill="#13293D"/>
<path d="M143 35.5L238.5 59.5L143 83L47.5 59.5L143 35.5Z" fill="#13293D"/>
<path d="M248 62L278.5 91L171 120.5L147.5 87L248 62Z" fill="#13293D"/>
<path d="M145.5 213.5L247.5 189V105.5L169 126.5L145.5 94.5V213.5Z" fill="#13293D"/>
</svg>
