<svg width="22" height="23" viewBox="0 0 22 23" fill="none" xmlns="http://www.w3.org/2000/svg">
<g clip-path="url(#clip0_8_713)">
<path d="M17.4167 4.79167V18.2083H4.58333V4.79167H17.4167ZM18.425 2.875H3.575C3.11667 2.875 2.75 3.25833 2.75 3.7375V19.2625C2.75 19.6458 3.11667 20.125 3.575 20.125H18.425C18.7917 20.125 19.25 19.6458 19.25 19.2625V3.7375C19.25 3.25833 18.7917 2.875 18.425 2.875ZM10.0833 6.70833H15.5833V8.625H10.0833V6.70833ZM10.0833 10.5417H15.5833V12.4583H10.0833V10.5417ZM10.0833 14.375H15.5833V16.2917H10.0833V14.375ZM6.41667 6.70833H8.25V8.625H6.41667V6.70833ZM6.41667 10.5417H8.25V12.4583H6.41667V10.5417ZM6.41667 14.375H8.25V16.2917H6.41667V14.375Z" fill="#E8F1F3"/>
</g>
<defs>
<clipPath id="clip0_8_713">
<rect width="22" height="23" fill="white"/>
</clipPath>
</defs>
</svg>
