<svg width="231" height="130" viewBox="0 0 231 130" fill="none" xmlns="http://www.w3.org/2000/svg">
<path d="M39.9568 1.95284C46.5812 0.664771 53.3999 0.755537 59.9877 2.21948L60.7799 2.39553C65.5672 3.45939 70.1906 5.23223 74.465 7.63655V7.63655C80.7297 11.1605 86.2196 16.0519 90.4472 21.865V21.865C94.0992 26.8865 96.8108 32.5811 98.391 38.5858L101 48.5L97.5529 40.744C94.5548 33.9984 90.1004 28.0003 84.5093 23.1804L84.0926 22.8212C80.3843 19.6244 76.2266 16.9896 71.7525 15.0011L70.8126 14.5834C66.9531 12.868 62.8918 11.6486 58.7257 10.9543L57.5335 10.7556C52.5401 9.92336 47.4493 9.85426 42.4352 10.5507L39.9173 10.9004C34.6742 11.6286 29.5851 13.2074 24.8506 15.5747L24.4021 15.7989C20.8168 17.5916 17.4876 19.856 14.503 22.5318V22.5318C7.97708 28.3826 3.305 36.0144 1.06219 44.4873L0 48.5L1.38103 39.9836C2.4467 33.412 4.97646 27.1642 8.78313 21.7025V21.7025C12.5473 16.3018 17.4652 11.8056 23.1808 8.53953L24.9622 7.52161C29.6225 4.85855 34.6879 2.97735 39.9568 1.95284V1.95284Z" fill="white"/>
<path d="M36.88 68.668C34.96 69.5 31.824 70.076 28.88 70.076C19.984 70.076 14.288 64.124 14.288 52.988C14.288 41.084 20.816 35.516 28.944 35.516C32.336 35.516 34.896 36.284 36.816 37.116L38.672 29.436C37.264 28.668 33.808 27.58 28.496 27.58C15.44 27.58 4.368 36.284 4.368 53.5C4.368 68.092 12.56 78.14 27.344 78.14C32.4 78.14 36.368 77.18 38.224 76.284L36.88 68.668ZM54.0725 26.044H44.6005V77.5H54.0725V26.044ZM72.0725 41.852H62.6005V77.5H72.0725V41.852ZM62.9845 37.372H69.3205L77.7685 26.684H68.9365L62.9845 37.372ZM111.065 55.676C111.065 45.692 106.009 41.148 99.4805 41.148C94.2965 41.148 90.7765 44.092 89.1765 46.716H88.9845L88.5365 41.916H80.3445C80.4725 45.052 80.6005 48.444 80.6005 52.604V77.5H90.0725V56.316C90.0725 50.876 93.5925 48.892 96.1525 48.892C100.185 48.892 101.593 52.348 101.593 56.7V77.5H111.065V55.676ZM129.33 32.124C129.33 29.18 127.282 27.068 124.21 27.068C121.266 27.068 119.154 29.18 119.154 32.124C119.154 35.004 121.202 37.18 124.21 37.18C127.154 37.18 129.33 35.196 129.33 32.124ZM129.01 41.852H119.538V77.5H129.01V41.852ZM160.45 69.5C158.914 70.204 157.058 70.652 154.69 70.652C149.25 70.652 145.218 66.62 145.218 59.644C145.218 53.372 148.674 48.572 154.626 48.572C157.25 48.572 158.978 49.148 160.194 49.724L161.73 42.492C160.194 41.852 157.378 41.148 154.306 41.148C142.53 41.148 135.618 49.34 135.618 60.028C135.618 71.356 142.402 78.14 152.834 78.14C156.61 78.14 159.874 77.372 161.474 76.604L160.45 69.5ZM194.162 55.996C194.162 48.188 191.154 41.148 180.082 41.148C174.514 41.148 170.098 42.748 167.73 44.156L169.522 50.3C171.826 48.892 175.026 47.868 178.29 47.868C183.474 47.868 184.69 50.556 184.69 54.076C173.362 54.076 165.234 58.364 165.234 67.516C165.234 73.276 169.33 78.204 175.922 78.204C179.89 78.204 183.346 76.604 185.394 73.788H185.586L186.162 77.5H194.674C194.29 75.324 194.162 72.188 194.162 69.052V55.996ZM184.946 65.276C184.946 69.82 181.234 71.42 178.994 71.42C176.626 71.42 174.514 69.948 174.514 66.556C174.514 61.372 179.826 60.156 184.946 60.156V65.276ZM223.145 43.068C221.097 41.98 217.961 41.084 214.312 41.084C206.377 41.084 201.257 45.948 201.257 52.348C201.257 56.252 203.689 60.028 210.345 62.716C214.249 64.38 215.465 65.532 215.465 67.708C215.465 69.884 213.865 71.292 210.537 71.292C207.593 71.292 204.073 70.012 202.217 68.924L200.424 75.772C202.793 77.18 206.569 78.14 210.473 78.14C219.369 78.14 224.489 73.66 224.489 66.876C224.489 61.948 221.673 58.492 215.657 55.996C211.561 54.268 210.217 53.244 210.217 51.26C210.217 49.34 211.753 47.868 214.633 47.868C217.321 47.868 219.817 48.892 221.353 49.724L223.145 43.068Z" fill="white"/>
<path d="M23.38 102.788H17.036V105.206H20.468V110.822C20.026 111.056 19.116 111.238 17.816 111.238C13.916 111.238 11.186 108.586 11.186 103.568C11.186 98.524 14.124 95.95 18.206 95.95C20.026 95.95 21.222 96.288 22.158 96.704L22.834 94.234C21.846 93.74 20.156 93.402 18.206 93.402C12.252 93.402 8.014 97.25 8.014 103.698C8.014 106.87 9.106 113.708 17.712 113.708C20.078 113.708 22.262 113.136 23.38 112.694V102.788ZM34.5198 93.298C29.4238 93.298 25.9398 97.406 25.9398 103.672C25.9398 109.678 29.1898 113.786 34.2598 113.786C39.0958 113.786 42.8138 110.276 42.8138 103.36C42.8138 97.64 39.7978 93.298 34.5198 93.298ZM34.4158 95.768C37.9778 95.768 39.6418 99.668 39.6418 103.464C39.6418 107.702 37.8478 111.316 34.3638 111.316C30.9318 111.316 29.1118 107.624 29.1118 103.594C29.1118 99.694 30.7498 95.768 34.4158 95.768ZM56.5824 110.952H48.9124V93.61H45.8964V113.5H56.5824V110.952ZM59.2519 113.448C60.3699 113.604 61.7999 113.682 63.5679 113.682C67.0779 113.682 69.9119 112.798 71.7059 111.056C73.4479 109.366 74.5659 106.74 74.5659 103.126V103.1C74.5659 98.68 72.7979 93.454 64.3219 93.454C62.4499 93.454 60.6819 93.636 59.2519 93.87V113.448ZM62.2679 96.054C62.7879 95.95 63.5679 95.846 64.6079 95.846C68.8979 95.846 71.3939 98.342 71.3939 103.178C71.3939 108.664 68.6899 111.29 64.2179 111.264C63.5159 111.264 62.7879 111.238 62.2679 111.16V96.054ZM88.5021 110.978H80.6761V104.374H87.6441V101.878H80.6761V96.132H88.0601V93.61H77.6601V113.5H88.5021V110.978ZM105.822 93.61H103.04V100.942C103.04 104.114 103.118 106.662 103.352 109.366L103.274 109.392C102.416 107.286 101.298 104.998 100.05 102.814L94.8501 93.61H91.5741V113.5H94.3561V106.064C94.3561 102.58 94.3041 100.006 94.1481 97.484L94.2521 97.458C95.1621 99.694 96.3581 102.034 97.5541 104.192L102.78 113.5H105.822V93.61Z" fill="white"/>
</svg>
